<svg preserveAspectRatio="none" overflow="visible" style="display: block;" width="30" height="36" viewBox="0 0 30 36" fill="none" xmlns="http://www.w3.org/2000/svg">
<path id="path4" d="M29.3712 28.0549C28.8326 29.3127 28.1951 30.4704 27.4564 31.5348C26.4495 32.9859 25.6251 33.9903 24.9897 34.5481C24.0048 35.4636 22.9496 35.9325 21.8196 35.9591C21.0084 35.9591 20.03 35.7258 18.8913 35.2525C17.7487 34.7814 16.6987 34.5481 15.7387 34.5481C14.7318 34.5481 13.6519 34.7814 12.4968 35.2525C11.34 35.7258 10.4081 35.9725 9.69559 35.9969C8.61197 36.0436 7.53188 35.5614 6.45376 34.5481C5.76565 33.9414 4.90495 32.9014 3.87388 31.4282C2.76762 29.8549 1.85813 28.0305 1.14561 25.9505C0.38253 23.704 0 21.5285 0 19.4223C0 17.0097 0.515756 14.9289 1.54881 13.1852C2.36069 11.7845 3.44079 10.6797 4.79261 9.86859C6.14444 9.05751 7.60509 8.64419 9.17808 8.61774C10.0388 8.61774 11.1674 8.88685 12.5701 9.41572C13.9687 9.94637 14.8668 10.2155 15.2605 10.2155C15.5549 10.2155 16.5525 9.90081 18.2438 9.2735C19.8432 8.69174 21.193 8.45086 22.2988 8.54574C25.2953 8.79018 27.5465 9.98415 29.0437 12.1352C26.3638 13.7765 25.0381 16.0753 25.0645 19.0243C25.0887 21.3214 25.9131 23.2329 27.5333 24.7506C28.2676 25.455 29.0876 25.9994 30 26.3861C29.8021 26.9661 29.5933 27.5216 29.3712 28.0549V28.0549ZM22.4989 0.720205C22.4989 2.52062 21.8482 4.20165 20.5511 5.75761C18.9858 7.60733 17.0925 8.67619 15.0394 8.50752C15.0132 8.29153 14.998 8.0642 14.998 7.82532C14.998 6.09693 15.7424 4.24721 17.0643 2.73481C17.7243 1.96906 18.5637 1.33234 19.5816 0.824423C20.5972 0.324083 21.558 0.0473835 22.4615 0C22.4879 0.240687 22.4989 0.481389 22.4989 0.720182V0.720205Z" fill="black"/>
</svg>
