<svg preserveAspectRatio="none" overflow="visible" style="display: block;" width="75.2713" height="15.6203" viewBox="0 0 75.2713 15.6203" fill="none" xmlns="http://www.w3.org/2000/svg">
<g id="Group">
<path id="Vector" d="M7.89711 9.26861H3.15042L2.01051 12.6251H0L4.49599 0.207058H6.58484L11.0808 12.6251H9.03603L7.89711 9.26861ZM3.64203 7.71978H7.40456L5.54976 2.27251H5.49785L3.64203 7.71978Z" fill="black"/>
<path id="Vector_2" d="M20.7907 8.09868C20.7907 10.9122 19.2806 12.7198 17.0018 12.7198C16.4245 12.7499 15.8504 12.6173 15.3452 12.3371C14.84 12.057 14.4241 11.6407 14.1452 11.1358H14.102V15.6201H12.2384V3.57133H14.0423V5.07719H14.0766C14.3684 4.57472 14.7913 4.16053 15.3003 3.87868C15.8094 3.59684 16.3856 3.45788 16.9675 3.4766C19.2718 3.47661 20.7907 5.29301 20.7907 8.09868ZM18.8752 8.09868C18.8752 6.26568 17.9253 5.06059 16.4759 5.06059C15.052 5.06059 14.0942 6.29106 14.0942 8.09868C14.0942 9.92289 15.052 11.1446 16.4759 11.1446C17.9253 11.1446 18.8752 9.94828 18.8752 8.09868Z" fill="black"/>
<path id="Vector_3" d="M30.7835 8.09872C30.7835 10.9122 29.2734 12.7198 26.9946 12.7198C26.4173 12.7499 25.8432 12.6173 25.338 12.3372C24.8328 12.057 24.4169 11.6407 24.138 11.1358H24.0948V15.6202H22.2312V3.57138H24.0351V5.07723H24.0694C24.3612 4.57477 24.7841 4.16058 25.2931 3.87874C25.8022 3.59689 26.3783 3.45794 26.9603 3.47665C29.2646 3.47665 30.7835 5.29305 30.7835 8.09872ZM28.868 8.09872C28.868 6.26572 27.9181 5.06063 26.4687 5.06063C25.0448 5.06063 24.087 6.2911 24.087 8.09872C24.087 9.92294 25.0448 11.1446 26.4687 11.1446C27.9181 11.1446 28.868 9.94833 28.868 8.09872H28.868Z" fill="black"/>
<path id="Vector_4" d="M37.3878 9.16509C37.5259 10.3965 38.7255 11.2051 40.3649 11.2051C41.9357 11.2051 43.0658 10.3965 43.0658 9.28614C43.0658 8.32227 42.3842 7.74514 40.7703 7.34962L39.1564 6.96192C36.8698 6.41114 35.8082 5.34473 35.8082 3.61426C35.8082 1.47168 37.6806 5.36434e-06 40.3394 5.36434e-06C42.9708 5.36434e-06 44.7747 1.47168 44.8354 3.61426H42.9541C42.8415 2.375 41.8142 1.62696 40.313 1.62696C38.8117 1.62696 37.7844 2.3838 37.7844 3.48536C37.7844 4.36329 38.4405 4.87989 40.0456 5.27536L41.4176 5.6113C43.9726 6.21384 45.0342 7.2373 45.0342 9.05368C45.0342 11.3769 43.1784 12.832 40.2268 12.832C37.4651 12.832 35.6005 11.4111 35.4801 9.165L37.3878 9.16509Z" fill="black"/>
<path id="Vector_5" d="M49.0562 1.42876V3.57134H50.7827V5.04302H49.0562V10.0342C49.0562 10.8096 49.4019 11.171 50.1609 11.171C50.3658 11.1674 50.5705 11.153 50.7739 11.128V12.5908C50.4327 12.6544 50.0859 12.6832 49.7388 12.6768C47.9006 12.6768 47.1838 11.9883 47.1838 10.2324V5.04302H45.8637V3.57134H47.1838V1.42876H49.0562Z" fill="black"/>
<path id="Vector_6" d="M51.7826 8.0987C51.7826 5.25007 53.4651 3.46003 56.0886 3.46003C58.721 3.46003 60.3956 5.25003 60.3956 8.0987C60.3956 10.9552 58.7298 12.7374 56.0886 12.7374C53.4484 12.7374 51.7826 10.9551 51.7826 8.0987ZM58.4968 8.0987C58.4968 6.1446 57.5987 4.99128 56.0886 4.99128C54.5786 4.99128 53.6815 6.15339 53.6815 8.0987C53.6815 10.0606 54.5786 11.2051 56.0886 11.2051C57.5987 11.2051 58.4967 10.0606 58.4967 8.0987H58.4968Z" fill="black"/>
<path id="Vector_7" d="M61.9321 3.57136H63.7095V5.11236H63.7526C63.8729 4.63107 64.1556 4.20574 64.5533 3.90785C64.951 3.60997 65.4394 3.45769 65.9365 3.47662C66.1512 3.47587 66.3654 3.49913 66.575 3.54596V5.28424C66.3038 5.20162 66.021 5.16369 65.7376 5.17194C65.4669 5.16098 65.197 5.20859 64.9464 5.31147C64.6959 5.41436 64.4706 5.57009 64.2862 5.76798C64.1017 5.96587 63.9623 6.20123 63.8776 6.4579C63.793 6.71457 63.765 6.98647 63.7957 7.25494V12.6251H61.9321L61.9321 3.57136Z" fill="black"/>
<path id="Vector_8" d="M75.1675 9.96589C74.9168 11.6094 73.3117 12.7374 71.2581 12.7374C68.6169 12.7374 66.9775 10.9727 66.9775 8.14167C66.9775 5.30183 68.6257 3.46003 71.1797 3.46003C73.6916 3.46003 75.2713 5.18073 75.2713 7.92585V8.56257H68.8588V8.67487C68.8292 9.00807 68.871 9.34374 68.9815 9.65958C69.092 9.97542 69.2686 10.2642 69.4996 10.5067C69.7306 10.7493 70.0107 10.9401 70.3213 11.0664C70.6319 11.1927 70.966 11.2516 71.3012 11.2393C71.7416 11.2805 72.1835 11.1788 72.5613 10.9493C72.9391 10.7199 73.2325 10.375 73.3979 9.96588L75.1675 9.96589ZM68.8676 7.26374H73.4067C73.4234 6.96414 73.3779 6.66433 73.2729 6.38312C73.1679 6.10192 73.0058 5.84538 72.7967 5.62961C72.5876 5.41385 72.336 5.24351 72.0577 5.12929C71.7795 5.01508 71.4806 4.95944 71.1797 4.96589C70.8763 4.96408 70.5754 5.02223 70.2946 5.13697C70.0138 5.25171 69.7585 5.42078 69.5435 5.63441C69.3286 5.84805 69.1582 6.10202 69.0422 6.38167C68.9261 6.66132 68.8668 6.96111 68.8676 7.26375V7.26374Z" fill="black"/>
</g>
</svg>
